<?xml version="1.0" encoding="iso-8859-1"?>
<!-- Generator: Adobe Illustrator 19.0.0, SVG Export Plug-In . SVG Version: 6.00 Build 0)  -->
<svg xmlns="http://www.w3.org/2000/svg" xmlns:xlink="http://www.w3.org/1999/xlink" version="1.1" id="Layer_1" x="0px" y="0px" viewBox="0 0 512 512" style="enable-background:new 0 0 512 512;" xml:space="preserve" width="512px" height="512px">
<g>
	<g>
		<path d="M495.268,100.246h-76.974v18.264c0,29.504-24.006,53.879-53.879,53.879H147.585c-29.857,0-53.879-24.357-53.879-53.879    v-18.264H16.732C7.491,100.246,0,107.738,0,116.978v236.683c0,9.241,7.492,16.732,16.732,16.732h7.061v-86.117    c0-12.408,3.549-23.998,9.671-33.829c11.341-18.212,31.534-30.365,54.522-30.365h336.027c22.988,0,43.182,12.153,54.523,30.364    c6.122,9.831,9.67,21.42,9.67,33.829v86.117h7.062c9.241,0,16.732-7.492,16.732-16.732V116.978    C512,107.738,504.508,100.246,495.268,100.246z" fill="#006DF0"/>
	</g>
</g>
<g>
	<g>
		<path d="M424.013,253.546H306.328L110.596,449.278c8.269,2.902,17.151,4.498,26.412,4.498h26.835    c28.043,0,51.856-20.54,55.972-48.28c2.606-17.563,17.682-30.567,35.437-30.567h1.496c17.755,0,32.832,13.004,35.437,30.567    c4.116,27.74,27.928,48.28,55.972,48.28h26.835c44.045,0,79.75-35.705,79.75-79.75v-89.751    C454.742,267.304,440.985,253.546,424.013,253.546z" fill="#006DF0"/>
	</g>
</g>
<g>
	<g>
		<path d="M87.986,253.545v0.001c-16.971,0-30.729,13.758-30.729,30.729v73.971l104.7-104.701H87.986z" fill="#006DF0"/>
	</g>
</g>
<g>
	<g>
		<path d="M209.282,253.546L61.916,400.913c4.136,11.55,10.862,21.859,19.476,30.245l177.61-177.612H209.282z" fill="#006DF0"/>
	</g>
</g>
<g>
	<g>
		<path d="M364.415,58.224H147.585c-11.275,0-20.415,9.14-20.415,20.415v39.87c0,11.275,9.14,20.416,20.415,20.416h216.829    c11.275,0,20.415-9.14,20.415-20.415V78.639C384.83,67.364,375.69,58.224,364.415,58.224z M173.214,117.598    c-11.738,0-21.254-9.516-21.254-21.254s9.515-21.254,21.254-21.254c11.738,0,21.254,9.516,21.254,21.254    S184.952,117.598,173.214,117.598z M236.796,117.598c-11.738,0-21.254-9.516-21.254-21.254s9.515-21.254,21.254-21.254    c11.738,0,21.254,9.516,21.254,21.254S248.534,117.598,236.796,117.598z" fill="#006DF0"/>
	</g>
</g>
<g>
</g>
<g>
</g>
<g>
</g>
<g>
</g>
<g>
</g>
<g>
</g>
<g>
</g>
<g>
</g>
<g>
</g>
<g>
</g>
<g>
</g>
<g>
</g>
<g>
</g>
<g>
</g>
<g>
</g>
</svg>
